<?xml version="1.0" encoding="UTF-8"?>
<svg id="Icon" xmlns="http://www.w3.org/2000/svg" xmlns:xlink="http://www.w3.org/1999/xlink" viewBox="0 0 100 100">
  <defs>
    <style>
      .cls-1 {
        font-family: MicrosoftYaHeiUI-Bold, 'Microsoft YaHei UI';
        font-size: 20.25px;
        font-weight: 700;
      }

      .cls-2 {
        fill: #80f000;
        stroke: #8f0;
        stroke-linecap: round;
        stroke-linejoin: round;
        stroke-width: 4px;
      }

      .cls-3 {
        fill: #acadae;
      }

      .cls-4 {
        fill: url(#_未命名的渐变_279);
        stroke: #bcbcbc;
        stroke-miterlimit: 10;
        stroke-width: .38px;
      }

      .cls-5 {
        fill: #e1e3e6;
      }

      .cls-6 {
        fill: #9e9e9e;
      }

      .cls-7 {
        fill: #82ff82;
      }

      .cls-8 {
        fill: #325d32;
      }

      .cls-9 {
        fill: #676767;
      }

      .cls-10 {
        fill: #343434;
      }
    </style>
    <linearGradient id="_未命名的渐变_279" data-name="未命名的渐变 279" x1="12.5" y1="55" x2="87.5" y2="55" gradientUnits="userSpaceOnUse">
      <stop offset=".93" stop-color="red"/>
      <stop offset=".93" stop-color="#e6e6e6"/>
    </linearGradient>
  </defs>
  <rect class="cls-2" x="5" y="5" width="90" height="90"/>
  <g>
    <polygon class="cls-6" points="44.36 43.64 20 35.66 55.64 24.27 80 32.24 44.36 43.64"/>
    <polygon class="cls-9" points="20 35.66 20 27.76 55.64 16.36 55.64 24.27 20 35.66"/>
    <polygon class="cls-10" points="46.64 42.91 22.29 34.93 22.29 27.03 46.64 35 46.64 42.91"/>
    <polygon class="cls-3" points="44.36 43.64 44.36 35.73 80 24.34 80 32.24 44.36 43.64"/>
    <polygon class="cls-5" points="44.36 35.73 20 27.76 55.64 16.36 80 24.34 44.36 35.73"/>
    <g>
      <path class="cls-7" d="M40.96,38.8c-.51,0-.93-.45-.93-1.01s.42-1.01.93-1.01.93.45.93,1.01-.42,1.01-.93,1.01Z"/>
      <path class="cls-8" d="M40.95,36.99c.4,0,.73.36.73.8s-.33.8-.73.8-.73-.36-.73-.8.33-.8.73-.8M40.95,36.59c-.63,0-1.14.54-1.14,1.21s.51,1.21,1.14,1.21,1.14-.54,1.14-1.21-.51-1.21-1.14-1.21h0Z"/>
    </g>
  </g>
  <rect class="cls-4" x="12.5" y="50" width="75" height="10"/>
  <text class="cls-1" transform="translate(17.5 83.06)"><tspan x="0" y="0" xml:space="preserve">?   ?   ?</tspan></text>
</svg>